<svg width="36" height="36" viewBox="0 0 36 36" fill="none" xmlns="http://www.w3.org/2000/svg">
<circle cx="18" cy="18" r="18" fill="#285393"/>
<path d="M26.2501 19.15V23.4C26.2501 24.494 25.4631 25.436 24.3781 25.58C22.2911 25.857 20.1621 26 18.0001 26C15.8381 26 13.7091 25.857 11.6221 25.58C10.5371 25.436 9.75006 24.494 9.75006 23.4V19.15M26.2501 19.15C26.4875 18.9436 26.6775 18.6883 26.807 18.4016C26.9364 18.1149 27.0023 17.8036 27.0001 17.489V13.706C27.0001 12.625 26.2321 11.691 25.1631 11.531C24.0304 11.3614 22.892 11.2323 21.7501 11.144M26.2501 19.15C26.0561 19.315 25.8301 19.445 25.5771 19.53C23.1333 20.3408 20.5748 20.7528 18.0001 20.75C15.3521 20.75 12.8051 20.321 10.4231 19.53C10.1763 19.4479 9.94778 19.3189 9.75006 19.15M9.75006 19.15C9.5126 18.9436 9.32262 18.6883 9.19315 18.4016C9.06369 18.1149 8.99782 17.8036 9.00006 17.489V13.706C9.00006 12.625 9.76806 11.691 10.8371 11.531C11.9698 11.3614 13.1081 11.2323 14.2501 11.144M21.7501 11.144V10.25C21.7501 9.65326 21.513 9.08097 21.091 8.65901C20.6691 8.23705 20.0968 8 19.5001 8H16.5001C15.9033 8 15.331 8.23705 14.9091 8.65901C14.4871 9.08097 14.2501 9.65326 14.2501 10.25V11.144M21.7501 11.144C19.2538 10.9511 16.7463 10.9511 14.2501 11.144M18.0001 17.75H18.0081V17.758H18.0001V17.75Z" stroke="white" stroke-width="1.5" stroke-linecap="round" stroke-linejoin="round"/>
</svg>
